# Blender 4.0.2
# www.blender.org
mtllib secret.mtl
o Plane
v -1.000000 0.000000 1.000000
v 1.000000 0.000000 1.000000
v -1.000000 0.000000 -1.000000
v 1.000000 0.000000 -1.000000
v 0.428025 2.427412 1.347885
v 1.347885 2.427412 -0.428025
v -1.347885 2.427412 0.428025
v -0.428025 2.427412 -1.347885
v 2.869697 1.514944 -1.591448
v 2.146440 1.514944 -2.482068
v 1.390326 2.907432 -2.972349
v 0.282117 2.907432 -3.269293
v -0.103269 1.271667 0.477969
v -0.477897 1.271667 -0.103253
v -0.073051 1.336527 0.469642
v -0.464489 1.336527 -0.100393
v 0.360339 1.491694 0.155312
v -0.069934 1.491694 -0.386010
v 0.316282 1.523644 0.187976
v -0.121733 1.523644 -0.347100
v -0.490045 1.204215 0.300440
v -0.480232 1.204216 -0.114288
v -0.123425 1.204216 0.478040
v 0.268112 1.543319 0.226695
v -0.174626 1.543319 -0.304481
v 0.023858 1.396302 -0.444752
v 0.430493 1.396302 0.114545
v -0.020810 1.448696 -0.419092
v 0.398904 1.448696 0.130457
v 0.071208 0.959735 -0.413522
v 0.360789 0.959735 0.214417
v 0.308577 0.916737 0.242376
v 0.031206 0.916737 -0.391051
v 0.062156 1.336527 -0.462035
v 0.453594 1.336527 0.108001
v 0.062761 0.865112 0.348035
v -0.199814 0.865112 -0.291667
v -0.132091 1.136764 0.470819
v -0.470748 1.136764 -0.132071
v 0.059597 1.491694 0.394359
v -0.370676 1.491694 -0.146963
v 0.006060 0.884787 0.372624
v -0.262171 0.884787 -0.264727
v 0.116632 1.071904 -0.451372
v 0.437542 1.071904 0.161149
v 0.120557 1.136764 -0.464221
v 0.459214 1.136764 0.138669
v 0.100045 1.012129 -0.434009
v 0.404357 1.012129 0.186925
v 0.468904 1.204216 0.121234
v 0.112097 1.204216 -0.471095
v -0.034544 1.396302 0.452650
v -0.441180 1.396302 -0.106647
v 0.010313 1.448696 0.427240
v -0.409401 1.448696 -0.122309
v 0.111517 1.523644 0.355598
v -0.326498 1.523644 -0.179479
v 0.217105 1.549963 0.269233
v -0.227220 1.549963 -0.260616
v 0.187561 0.865112 0.296809
v -0.075014 0.865112 -0.342893
v 0.092157 1.271667 -0.470682
v 0.466784 1.271667 0.110539
v 0.249964 0.884787 0.269977
v -0.018267 0.884787 -0.367374
v -0.111931 1.012129 0.439950
v -0.416243 1.012129 -0.180984
v -0.083231 0.959735 0.419181
v -0.372812 0.959735 -0.208758
v -0.128354 1.071904 0.457631
v -0.449263 1.071904 -0.154890
v -0.043336 0.916737 0.396476
v -0.320707 0.916737 -0.236951
v 0.124196 0.858468 0.322795
v -0.136464 0.858468 -0.317690
v 0.164485 1.543319 0.313069
v -0.278253 1.543319 -0.218107
v 2.598753 1.796588 -2.228852
v 2.104457 1.796588 -2.700475
v 1.606856 2.625787 -3.023129
v 0.974600 2.625787 -3.281990
v 5.156168 0.992215 -2.091118
v 4.861021 0.992215 -2.707271
v 4.038349 1.821414 -3.827607
v 3.538812 1.821414 -4.293675
v 1.757249 2.563912 -3.128238
v 1.914692 2.502038 -3.227197
v 2.078955 2.440163 -3.319698
v 2.249800 2.378288 -3.405437
v 2.426973 2.316413 -3.484122
v 2.610210 2.254538 -3.555470
v 2.799237 2.192663 -3.619204
v 2.993771 2.130788 -3.675061
v 3.193514 2.068913 -3.722784
v 3.398163 2.007039 -3.762129
v 3.607402 1.945164 -3.792860
v 3.820908 1.883289 -3.814757
v 3.308583 1.883289 -4.266730
v 3.082687 1.945164 -4.230388
v 2.861465 2.007039 -4.184871
v 2.645249 2.068913 -4.130414
v 2.434364 2.130788 -4.067261
v 2.229124 2.192663 -3.995671
v 2.029831 2.254538 -3.915910
v 1.836779 2.316413 -3.828257
v 1.650250 2.378288 -3.732998
v 1.470514 2.440163 -3.630432
v 1.297831 2.502038 -3.520864
v 1.132448 2.563912 -3.404608
v 4.636823 1.054090 -2.766150
v 4.413232 1.115965 -2.814698
v 4.190647 1.177840 -2.852999
v 3.969463 1.239715 -2.881150
v 3.750071 1.301589 -2.899260
v 3.532858 1.363464 -2.907454
v 3.318202 1.425339 -2.905873
v 3.106480 1.487214 -2.894666
v 2.898057 1.549089 -2.873998
v 2.693294 1.610964 -2.844049
v 2.492544 1.672839 -2.805008
v 2.296153 1.734714 -2.757078
v 4.949018 1.054090 -2.158457
v 4.742232 1.115965 -2.215937
v 4.536197 1.177840 -2.263634
v 4.331295 1.239715 -2.301638
v 4.127905 1.301589 -2.330052
v 3.926400 1.363464 -2.348991
v 3.727148 1.425339 -2.358588
v 3.530510 1.487214 -2.358984
v 3.336843 1.549089 -2.350335
v 3.146496 1.610964 -2.332811
v 2.959811 1.672839 -2.306592
v 2.777121 1.734714 -2.271870
v 1.000000 0.000000 1.000000
v -1.000000 0.000000 1.000000
v 1.000000 0.000000 -1.000000
v -1.000000 0.000000 -1.000000
v 1.347885 2.427412 -0.428025
v 0.428025 2.427412 1.347885
v -0.428025 2.427412 -1.347885
v -1.347885 2.427412 0.428025
v -2.146440 1.514944 2.482068
v -2.869697 1.514944 1.591448
v -0.282117 2.907432 3.269293
v -1.390326 2.907432 2.972349
v 0.477953 1.271667 0.103341
v 0.103326 1.271667 -0.477881
v 0.464547 1.336527 0.100479
v 0.073109 1.336527 -0.469557
v 0.069999 1.491694 0.386091
v -0.360275 1.491694 -0.155231
v 0.121799 1.523644 0.347181
v -0.316216 1.523644 -0.187896
v 0.494683 1.204215 -0.292740
v 0.123479 1.204216 -0.477951
v 0.480286 1.204216 0.114377
v 0.174692 1.543319 0.304561
v -0.268046 1.543319 -0.226615
v -0.430432 1.396302 -0.114460
v -0.023797 1.396302 0.444836
v -0.398841 1.448696 -0.130375
v 0.020874 1.448696 0.419175
v -0.360745 0.959735 -0.214322
v -0.071165 0.959735 0.413617
v -0.031164 0.916737 0.391146
v -0.308535 0.916737 -0.242281
v -0.453535 1.336527 -0.107915
v -0.062097 1.336527 0.462121
v 0.199853 0.865112 0.291763
v -0.062722 0.865112 -0.347939
v 0.470799 1.136764 0.132162
v 0.132142 1.136764 -0.470728
v 0.370741 1.491694 0.147044
v -0.059532 1.491694 -0.394278
v 0.262211 0.884787 0.264823
v -0.006020 0.884787 -0.372529
v -0.437493 1.071904 -0.161057
v -0.116584 1.071904 0.451464
v -0.459163 1.136764 -0.138579
v -0.120506 1.136764 0.464311
v -0.404311 1.012129 -0.186831
v -0.100000 1.012129 0.434103
v -0.112043 1.204216 0.471184
v -0.468850 1.204216 -0.121145
v 0.441241 1.396302 0.106731
v 0.034605 1.396302 -0.452565
v 0.409464 1.448696 0.122392
v -0.010250 1.448696 -0.427157
v 0.326564 1.523644 0.179559
v -0.111451 1.523644 -0.355517
v 0.227287 1.549963 0.260695
v -0.217038 1.549963 -0.269154
v 0.075054 0.865112 0.342989
v -0.187521 0.865112 -0.296713
v -0.466728 1.271667 -0.110452
v -0.092101 1.271667 0.470770
v 0.018307 0.884787 0.367470
v -0.249924 0.884787 -0.269881
v 0.416288 1.012129 0.181077
v 0.111977 1.012129 -0.439857
v 0.372855 0.959735 0.208852
v 0.083275 0.959735 -0.419087
v 0.449312 1.071904 0.154982
v 0.128402 1.071904 -0.457538
v 0.320749 0.916737 0.237047
v 0.043378 0.916737 -0.396380
v 0.136503 0.858468 0.317786
v -0.124157 0.858468 -0.322699
v 0.278319 1.543319 0.218187
v -0.164419 1.543319 -0.312989
v -2.104457 1.796588 2.700475
v -2.598753 1.796588 2.228852
v -0.974600 2.625787 3.281990
v -1.606856 2.625787 3.023129
v -4.861021 0.992215 2.707271
v -5.156168 0.992215 2.091118
v -3.538812 1.821414 4.293675
v -4.038349 1.821414 3.827607
v -1.132448 2.563912 3.404608
v -1.297831 2.502038 3.520864
v -1.470514 2.440163 3.630432
v -1.650250 2.378288 3.732998
v -1.836779 2.316413 3.828257
v -2.029831 2.254538 3.915910
v -2.229123 2.192663 3.995670
v -2.434364 2.130788 4.067260
v -2.645249 2.068913 4.130413
v -2.861464 2.007039 4.184871
v -3.082687 1.945164 4.230388
v -3.308583 1.883289 4.266730
v -3.820908 1.883289 3.814757
v -3.607402 1.945164 3.792861
v -3.398163 2.007039 3.762129
v -3.193515 2.068913 3.722785
v -2.993771 2.130788 3.675061
v -2.799238 2.192663 3.619205
v -2.610210 2.254538 3.555470
v -2.426973 2.316413 3.484123
v -2.249800 2.378288 3.405437
v -2.078955 2.440163 3.319698
v -1.914692 2.502038 3.227197
v -1.757249 2.563912 3.128238
v -4.949018 1.054090 2.158457
v -4.742232 1.115965 2.215937
v -4.536197 1.177840 2.263634
v -4.331295 1.239715 2.301638
v -4.127905 1.301589 2.330052
v -3.926400 1.363464 2.348991
v -3.727148 1.425339 2.358588
v -3.530510 1.487214 2.358984
v -3.336843 1.549089 2.350335
v -3.146496 1.610964 2.332811
v -2.959811 1.672839 2.306592
v -2.777121 1.734714 2.271870
v -4.636823 1.054090 2.766150
v -4.413232 1.115965 2.814698
v -4.190647 1.177840 2.852999
v -3.969463 1.239715 2.881150
v -3.750071 1.301589 2.899260
v -3.532858 1.363464 2.907454
v -3.318202 1.425339 2.905873
v -3.106480 1.487214 2.894666
v -2.898057 1.549089 2.873998
v -2.693294 1.610964 2.844049
v -2.492544 1.672839 2.805008
v -2.296153 1.734714 2.757078
vn -0.0000 -1.0000 -0.0000
vn -0.0000 1.0000 -0.0000
vn -0.0781 0.5333 -0.8423
vn 0.0782 0.5308 0.8439
vn 0.5786 0.5840 0.5694
vn -0.8843 0.4508 0.1217
vn -0.2330 -0.7181 -0.6558
vn -0.0827 0.9771 0.1961
vn 0.5938 -0.7908 -0.1486
vn -0.5549 -0.6058 -0.5701
vn 0.7145 -0.5269 0.4603
vn -0.5178 -0.4455 0.7303
vn -0.7158 -0.5244 -0.4612
vn 0.7967 -0.2903 -0.5301
vn 0.7202 -0.4714 -0.5090
vn 0.6198 -0.6344 -0.4619
vn 0.5004 -0.7730 -0.3899
vn 0.3669 -0.8819 -0.2960
vn 0.2238 -0.9569 -0.1849
vn 0.0752 -0.9952 -0.0629
vn 0.8602 0.0980 -0.5005
vn 0.8411 0.2902 -0.4564
vn 0.7867 0.4713 -0.3987
vn 0.6981 0.6344 -0.3320
vn 0.5787 0.7730 -0.2601
vn 0.4332 0.8819 -0.1860
vn 0.2681 0.9569 -0.1114
vn 0.0907 0.9952 -0.0371
vn 0.2358 0.9364 -0.2599
vn 0.6398 -0.5134 -0.5719
vn 0.6938 0.7181 -0.0549
vn 0.2611 0.5134 -0.8175
vn 0.8060 -0.0000 -0.5919
vn -0.2311 -0.9259 -0.2990
vn -0.3143 -0.9364 0.1560
vn 0.2314 0.9257 0.2993
vn 0.4506 0.8420 0.2967
vn 0.4278 0.8530 0.2989
vn 0.4060 0.8630 0.3006
vn 0.3851 0.8721 0.3019
vn 0.3651 0.8803 0.3028
vn 0.3459 0.8879 0.3034
vn 0.3275 0.8948 0.3036
vn 0.3098 0.9011 0.3035
vn 0.2929 0.9068 0.3031
vn 0.2766 0.9121 0.3025
vn 0.2609 0.9170 0.3016
vn 0.2459 0.9215 0.3006
vn -0.2457 -0.9364 0.2505
vn -0.2526 -0.9364 0.2435
vn -0.2593 -0.9364 0.2364
vn -0.2658 -0.9364 0.2291
vn -0.2720 -0.9364 0.2216
vn -0.2781 -0.9364 0.2139
vn -0.2840 -0.9364 0.2061
vn -0.2896 -0.9364 0.1981
vn -0.2950 -0.9364 0.1900
vn -0.3002 -0.9364 0.1817
vn -0.3051 -0.9364 0.1732
vn -0.3098 -0.9364 0.1647
vn -0.4502 -0.8423 -0.2964
vn -0.4274 -0.8533 -0.2986
vn -0.4056 -0.8633 -0.3003
vn -0.3847 -0.8724 -0.3016
vn -0.3647 -0.8806 -0.3025
vn -0.3455 -0.8881 -0.3030
vn -0.3271 -0.8950 -0.3032
vn -0.3095 -0.9013 -0.3031
vn -0.2926 -0.9070 -0.3028
vn -0.2763 -0.9123 -0.3022
vn -0.2607 -0.9172 -0.3013
vn -0.2456 -0.9217 -0.3002
vn 0.1375 0.9364 -0.3228
vn 0.1464 0.9364 -0.3189
vn 0.1552 0.9364 -0.3147
vn 0.1639 0.9364 -0.3102
vn 0.1725 0.9364 -0.3055
vn 0.1809 0.9364 -0.3006
vn 0.1892 0.9364 -0.2955
vn 0.1974 0.9364 -0.2901
vn 0.2054 0.9364 -0.2845
vn 0.2132 0.9364 -0.2786
vn 0.2209 0.9364 -0.2726
vn 0.2284 0.9364 -0.2663
vn -0.0782 0.5308 -0.8439
vn 0.0781 0.5333 0.8423
vn 0.5549 -0.6058 0.5702
vn 0.8843 0.4507 -0.1217
vn -0.6938 0.7181 0.0549
vn 0.0827 0.9771 -0.1961
vn -0.5938 -0.7908 0.1486
vn -0.5786 0.5840 -0.5694
vn 0.7158 -0.5243 0.4612
vn 0.5178 -0.4455 -0.7303
vn -0.7145 -0.5269 -0.4603
vn -0.7967 -0.2902 0.5301
vn -0.7203 -0.4713 0.5090
vn -0.6198 -0.6344 0.4619
vn -0.5004 -0.7730 0.3899
vn -0.3669 -0.8819 0.2960
vn -0.2238 -0.9569 0.1849
vn -0.0752 -0.9952 0.0629
vn -0.8602 0.0980 0.5005
vn -0.8411 0.2903 0.4564
vn -0.7866 0.4714 0.3987
vn -0.6981 0.6344 0.3320
vn -0.5786 0.7730 0.2601
vn -0.4332 0.8819 0.1860
vn -0.2681 0.9569 0.1114
vn -0.0907 0.9952 0.0371
vn -0.2358 0.9364 0.2599
vn -0.6398 -0.5134 0.5719
vn 0.2330 -0.7181 0.6558
vn -0.2611 0.5134 0.8175
vn -0.8060 -0.0000 0.5919
vn -0.2314 0.9257 -0.2993
vn 0.3143 -0.9364 -0.1560
vn 0.2311 -0.9259 0.2990
vn 0.4502 -0.8423 0.2964
vn 0.4274 -0.8533 0.2986
vn 0.4056 -0.8633 0.3003
vn 0.3847 -0.8724 0.3016
vn 0.3647 -0.8806 0.3025
vn 0.3455 -0.8881 0.3030
vn 0.3271 -0.8950 0.3032
vn 0.3095 -0.9013 0.3031
vn 0.2926 -0.9070 0.3028
vn 0.2763 -0.9123 0.3022
vn 0.2607 -0.9172 0.3013
vn 0.2456 -0.9217 0.3002
vn 0.2457 -0.9364 -0.2505
vn 0.2526 -0.9364 -0.2435
vn 0.2593 -0.9364 -0.2364
vn 0.2658 -0.9364 -0.2291
vn 0.2720 -0.9364 -0.2216
vn 0.2781 -0.9364 -0.2139
vn 0.2840 -0.9364 -0.2061
vn 0.2896 -0.9364 -0.1981
vn 0.2950 -0.9364 -0.1900
vn 0.3002 -0.9364 -0.1817
vn 0.3051 -0.9364 -0.1732
vn 0.3098 -0.9364 -0.1647
vn -0.4506 0.8420 -0.2967
vn -0.4278 0.8530 -0.2989
vn -0.4060 0.8630 -0.3006
vn -0.3851 0.8721 -0.3019
vn -0.3651 0.8803 -0.3028
vn -0.3459 0.8879 -0.3034
vn -0.3275 0.8948 -0.3036
vn -0.3098 0.9011 -0.3035
vn -0.2929 0.9068 -0.3031
vn -0.2766 0.9121 -0.3025
vn -0.2609 0.9170 -0.3016
vn -0.2459 0.9215 -0.3006
vn -0.1375 0.9364 0.3228
vn -0.1464 0.9364 0.3189
vn -0.1552 0.9364 0.3147
vn -0.1639 0.9364 0.3102
vn -0.1725 0.9364 0.3055
vn -0.1809 0.9364 0.3006
vn -0.1892 0.9364 0.2955
vn -0.1974 0.9364 0.2901
vn -0.2054 0.9364 0.2845
vn -0.2132 0.9364 0.2786
vn -0.2209 0.9364 0.2726
vn -0.2284 0.9364 0.2663
vt 0.000000 0.000000
vt 0.000000 1.000000
vt 1.000000 1.000000
vt 1.000000 0.000000
vt 0.009607 1.000000
vt 0.038060 1.000000
vt 0.084265 1.000000
vt 0.146447 1.000000
vt 0.222215 1.000000
vt 0.308658 1.000000
vt 0.402455 1.000000
vt 0.500000 1.000000
vt 0.597545 1.000000
vt 0.691342 1.000000
vt 0.777785 1.000000
vt 0.853553 1.000000
vt 0.915735 1.000000
vt 0.961940 1.000000
vt 0.990393 1.000000
vt 0.990393 0.000000
vt 0.961940 0.000000
vt 0.915735 0.000000
vt 0.853553 0.000000
vt 0.777785 0.000000
vt 0.691342 0.000000
vt 0.597545 0.000000
vt 0.500000 0.000000
vt 0.402455 0.000000
vt 0.308658 0.000000
vt 0.222215 0.000000
vt 0.146447 0.000000
vt 0.084265 0.000000
vt 0.038060 0.000000
vt 0.009607 0.000000
vt 0.000000 0.496090
vt 0.038060 0.000000
vt 0.146447 0.000000
vt 0.222215 0.000000
vt 0.402455 0.000000
vt 0.500000 0.000000
vt 0.597545 0.000000
vt 0.691342 0.000000
vt 0.777785 0.000000
vt 0.853553 0.000000
vt 0.961940 0.000000
vt 0.990393 0.000000
vt 0.961940 1.000000
vt 0.915735 1.000000
vt 0.777785 1.000000
vt 0.500000 1.000000
vt 0.402455 1.000000
vt 0.308658 1.000000
vt 0.222215 1.000000
vt 0.038060 1.000000
vt 0.009607 1.000000
s 0
f 1/1/1 3/2/1 4/3/1 2/4/1
f 5/1/2 6/4/2 8/3/2 7/2/2
f 4/3/3 3/2/3 22/2/3 39/5/3 71/6/3 67/7/3 69/8/3 73/9/3 43/10/3 37/11/3 75/12/3 61/13/3 65/14/3 33/15/3 30/16/3 48/17/3 44/18/3 46/19/3 51/3/3
f 1/1/4 2/4/4 50/4/4 47/20/4 45/21/4 49/22/4 31/23/4 32/24/4 64/25/4 60/26/4 74/27/4 36/28/4 42/29/4 72/30/4 68/31/4 66/32/4 70/33/4 38/34/4 23/1/4
f 6/4/5 50/4/5 2/4/5 9/4/5 11/4/5
f 3/2/6 1/1/6 23/1/6 21/35/6 22/2/6
f 10/3/7 12/3/7 81/3/7 79/3/7
f 8/3/8 6/4/8 11/4/8 12/3/8
f 2/4/9 4/3/9 10/3/9 9/4/9
f 4/3/10 51/3/10 8/3/10 12/3/10 10/3/10
f 23/1/11 13/34/11 15/36/11 52/32/11 54/37/11 40/38/11 56/29/11 76/39/11 58/40/11 24/41/11 19/42/11 17/43/11 29/44/11 27/22/11 35/45/11 63/46/11 50/4/11 6/4/11 5/1/11
f 22/2/12 21/35/12 23/1/12 5/1/12 7/2/12
f 51/3/13 62/19/13 34/47/13 26/48/13 28/16/13 18/49/13 20/14/13 25/13/13 59/50/13 77/51/13 57/52/13 41/53/13 55/8/13 53/7/13 16/54/13 14/55/13 22/2/13 7/2/13 8/3/13
f 13/34/14 14/55/14 16/54/14 15/36/14
f 53/7/15 52/32/15 15/36/15 16/54/15
f 52/32/16 53/7/16 55/8/16 54/37/16
f 41/53/17 40/38/17 54/37/17 55/8/17
f 40/38/18 41/53/18 57/52/18 56/29/18
f 56/29/19 57/52/19 77/51/19 76/39/19
f 59/50/20 58/40/20 76/39/20 77/51/20
f 23/1/21 38/34/21 39/5/21 22/2/21
f 38/34/22 70/33/22 71/6/22 39/5/22
f 67/7/23 71/6/23 70/33/23 66/32/23
f 66/32/24 68/31/24 69/8/24 67/7/24
f 68/31/25 72/30/25 73/9/25 69/8/25
f 43/10/26 73/9/26 72/30/26 42/29/26
f 37/11/27 43/10/27 42/29/27 36/28/27
f 75/12/28 37/11/28 36/28/28 74/27/28
f 98/3/29 97/4/29 84/4/29 85/3/29
f 9/4/30 10/3/30 79/3/30 78/4/30
f 11/4/31 9/4/31 78/4/31 80/4/31
f 12/3/32 11/4/32 80/4/32 81/3/32
f 82/4/33 83/3/33 85/3/33 84/4/33
f 110/3/34 98/3/34 85/3/34 83/3/34
f 122/4/35 110/3/35 83/3/35 82/4/35
f 97/4/36 122/4/36 82/4/36 84/4/36
f 80/4/37 78/4/37 133/4/37 86/4/37
f 86/4/38 133/4/38 132/4/38 87/4/38
f 87/4/39 132/4/39 131/4/39 88/4/39
f 88/4/40 131/4/40 130/4/40 89/4/40
f 89/4/41 130/4/41 129/4/41 90/4/41
f 90/4/42 129/4/42 128/4/42 91/4/42
f 91/4/43 128/4/43 127/4/43 92/4/43
f 92/4/44 127/4/44 126/4/44 93/4/44
f 93/4/45 126/4/45 125/4/45 94/4/45
f 94/4/46 125/4/46 124/4/46 95/4/46
f 95/4/47 124/4/47 123/4/47 96/4/47
f 96/4/48 123/4/48 122/4/48 97/4/48
f 78/4/49 79/3/49 121/3/49 133/4/49
f 133/4/50 121/3/50 120/3/50 132/4/50
f 132/4/51 120/3/51 119/3/51 131/4/51
f 131/4/52 119/3/52 118/3/52 130/4/52
f 130/4/53 118/3/53 117/3/53 129/4/53
f 129/4/54 117/3/54 116/3/54 128/4/54
f 128/4/55 116/3/55 115/3/55 127/4/55
f 127/4/56 115/3/56 114/3/56 126/4/56
f 126/4/57 114/3/57 113/3/57 125/4/57
f 125/4/58 113/3/58 112/3/58 124/4/58
f 124/4/59 112/3/59 111/3/59 123/4/59
f 123/4/60 111/3/60 110/3/60 122/4/60
f 79/3/61 81/3/61 109/3/61 121/3/61
f 121/3/62 109/3/62 108/3/62 120/3/62
f 120/3/63 108/3/63 107/3/63 119/3/63
f 119/3/64 107/3/64 106/3/64 118/3/64
f 118/3/65 106/3/65 105/3/65 117/3/65
f 117/3/66 105/3/66 104/3/66 116/3/66
f 116/3/67 104/3/67 103/3/67 115/3/67
f 115/3/68 103/3/68 102/3/68 114/3/68
f 114/3/69 102/3/69 101/3/69 113/3/69
f 113/3/70 101/3/70 100/3/70 112/3/70
f 112/3/71 100/3/71 99/3/71 111/3/71
f 111/3/72 99/3/72 98/3/72 110/3/72
f 81/3/73 80/4/73 86/4/73 109/3/73
f 109/3/74 86/4/74 87/4/74 108/3/74
f 108/3/75 87/4/75 88/4/75 107/3/75
f 107/3/76 88/4/76 89/4/76 106/3/76
f 106/3/77 89/4/77 90/4/77 105/3/77
f 105/3/78 90/4/78 91/4/78 104/3/78
f 104/3/79 91/4/79 92/4/79 103/3/79
f 103/3/80 92/4/80 93/4/80 102/3/80
f 102/3/81 93/4/81 94/4/81 101/3/81
f 101/3/82 94/4/82 95/4/82 100/3/82
f 100/3/83 95/4/83 96/4/83 99/3/83
f 99/3/84 96/4/84 97/4/84 98/3/84
f 134/1/1 135/4/1 137/3/1 136/2/1
f 138/1/2 140/2/2 141/3/2 139/4/2
f 137/3/85 184/3/85 179/19/85 177/18/85 181/17/85 163/16/85 166/15/85 198/14/85 194/13/85 208/12/85 170/11/85 176/10/85 206/9/85 202/8/85 200/7/85 204/6/85 172/5/85 155/2/85 136/2/85
f 134/1/86 156/1/86 171/34/86 203/33/86 199/32/86 201/31/86 205/30/86 175/29/86 169/28/86 207/27/86 193/26/86 197/25/86 165/24/86 164/23/86 182/22/86 178/21/86 180/20/86 183/4/86 135/4/86
f 139/4/87 144/4/87 142/4/87 135/4/87 183/4/87
f 136/2/88 155/2/88 154/35/88 156/1/88 134/1/88
f 143/3/89 212/3/89 214/3/89 145/3/89
f 141/3/90 145/3/90 144/4/90 139/4/90
f 135/4/91 142/4/91 143/3/91 137/3/91
f 137/3/92 143/3/92 145/3/92 141/3/92 184/3/92
f 156/1/93 138/1/93 139/4/93 183/4/93 196/46/93 168/45/93 160/22/93 162/44/93 150/43/93 152/42/93 157/41/93 191/40/93 209/39/93 189/29/93 173/38/93 187/37/93 185/32/93 148/36/93 146/34/93
f 155/2/94 140/2/94 138/1/94 156/1/94 154/35/94
f 184/3/95 141/3/95 140/2/95 155/2/95 147/55/95 149/54/95 186/7/95 188/8/95 174/53/95 190/52/95 210/51/95 192/50/95 158/13/95 153/14/95 151/49/95 161/16/95 159/48/95 167/47/95 195/19/95
f 146/34/96 148/36/96 149/54/96 147/55/96
f 186/7/97 149/54/97 148/36/97 185/32/97
f 185/32/98 187/37/98 188/8/98 186/7/98
f 174/53/99 188/8/99 187/37/99 173/38/99
f 173/38/100 189/29/100 190/52/100 174/53/100
f 189/29/101 209/39/101 210/51/101 190/52/101
f 192/50/102 210/51/102 209/39/102 191/40/102
f 156/1/103 155/2/103 172/5/103 171/34/103
f 171/34/104 172/5/104 204/6/104 203/33/104
f 200/7/105 199/32/105 203/33/105 204/6/105
f 199/32/106 200/7/106 202/8/106 201/31/106
f 201/31/107 202/8/107 206/9/107 205/30/107
f 176/10/108 175/29/108 205/30/108 206/9/108
f 170/11/109 169/28/109 175/29/109 176/10/109
f 208/12/110 207/27/110 169/28/110 170/11/110
f 231/3/111 218/3/111 217/4/111 230/4/111
f 142/4/112 211/4/112 212/3/112 143/3/112
f 144/4/113 213/4/113 211/4/113 142/4/113
f 145/3/114 214/3/114 213/4/114 144/4/114
f 215/4/115 217/4/115 218/3/115 216/3/115
f 243/3/116 216/3/116 218/3/116 231/3/116
f 255/4/117 215/4/117 216/3/117 243/3/117
f 230/4/118 217/4/118 215/4/118 255/4/118
f 213/4/119 219/4/119 266/4/119 211/4/119
f 219/4/120 220/4/120 265/4/120 266/4/120
f 220/4/121 221/4/121 264/4/121 265/4/121
f 221/4/122 222/4/122 263/4/122 264/4/122
f 222/4/123 223/4/123 262/4/123 263/4/123
f 223/4/124 224/4/124 261/4/124 262/4/124
f 224/4/125 225/4/125 260/4/125 261/4/125
f 225/4/126 226/4/126 259/4/126 260/4/126
f 226/4/127 227/4/127 258/4/127 259/4/127
f 227/4/128 228/4/128 257/4/128 258/4/128
f 228/4/129 229/4/129 256/4/129 257/4/129
f 229/4/130 230/4/130 255/4/130 256/4/130
f 211/4/131 266/4/131 254/3/131 212/3/131
f 266/4/132 265/4/132 253/3/132 254/3/132
f 265/4/133 264/4/133 252/3/133 253/3/133
f 264/4/134 263/4/134 251/3/134 252/3/134
f 263/4/135 262/4/135 250/3/135 251/3/135
f 262/4/136 261/4/136 249/3/136 250/3/136
f 261/4/137 260/4/137 248/3/137 249/3/137
f 260/4/138 259/4/138 247/3/138 248/3/138
f 259/4/139 258/4/139 246/3/139 247/3/139
f 258/4/140 257/4/140 245/3/140 246/3/140
f 257/4/141 256/4/141 244/3/141 245/3/141
f 256/4/142 255/4/142 243/3/142 244/3/142
f 212/3/143 254/3/143 242/3/143 214/3/143
f 254/3/144 253/3/144 241/3/144 242/3/144
f 253/3/145 252/3/145 240/3/145 241/3/145
f 252/3/146 251/3/146 239/3/146 240/3/146
f 251/3/147 250/3/147 238/3/147 239/3/147
f 250/3/148 249/3/148 237/3/148 238/3/148
f 249/3/149 248/3/149 236/3/149 237/3/149
f 248/3/150 247/3/150 235/3/150 236/3/150
f 247/3/151 246/3/151 234/3/151 235/3/151
f 246/3/152 245/3/152 233/3/152 234/3/152
f 245/3/153 244/3/153 232/3/153 233/3/153
f 244/3/154 243/3/154 231/3/154 232/3/154
f 214/3/155 242/3/155 219/4/155 213/4/155
f 242/3/156 241/3/156 220/4/156 219/4/156
f 241/3/157 240/3/157 221/4/157 220/4/157
f 240/3/158 239/3/158 222/4/158 221/4/158
f 239/3/159 238/3/159 223/4/159 222/4/159
f 238/3/160 237/3/160 224/4/160 223/4/160
f 237/3/161 236/3/161 225/4/161 224/4/161
f 236/3/162 235/3/162 226/4/162 225/4/162
f 235/3/163 234/3/163 227/4/163 226/4/163
f 234/3/164 233/3/164 228/4/164 227/4/164
f 233/3/165 232/3/165 229/4/165 228/4/165
f 232/3/166 231/3/166 230/4/166 229/4/166
